<?xml version="1.0" encoding="UTF-8"?><svg id="Layer_2" xmlns="http://www.w3.org/2000/svg" xmlns:xlink="http://www.w3.org/1999/xlink" viewBox="0 0 451.91 68.08"><defs><linearGradient id="linear-gradient" x1="0" y1="34.04" x2="451.91" y2="34.04" gradientUnits="userSpaceOnUse"><stop offset="0" stop-color="#997842"/><stop offset=".5" stop-color="#f0e99e"/><stop offset="1" stop-color="#997842"/></linearGradient></defs><path d="m35.03,32.88c3.32-2.71,5.37-6.82,5.37-11.23v-2.55c0-7.98-6.5-14.48-14.48-14.48H0v62.25h28.15c7.98,0,14.48-6.5,14.48-14.48v-6.78c0-5.45-3.01-10.27-7.59-12.73ZM5,9.63h20.92c5.23,0,9.48,4.25,9.48,9.48v2.55c0,5.23-4.25,9.48-9.48,9.48H5V9.63Zm32.62,42.77c0,5.23-4.25,9.48-9.48,9.48H5v-25.74h23.15c5.23,0,9.48,4.25,9.48,9.48v6.78ZM92.97,4.63h-28.65v62.55h5v-25.2h20.46l12.92,26.1,4.48-2.22-11.91-24.06c6.89-1.11,12.18-7.1,12.18-14.3v-8.39c0-7.98-6.5-14.48-14.48-14.48Zm9.48,22.87c0,5.23-4.25,9.48-9.48,9.48h-23.65V9.63h23.65c5.23,0,9.48,4.25,9.48,9.48v8.39Zm26.66-17.87h19.22v52.25h-19.22v5h43.44v-5h-19.22V9.63h20.46v-5h-44.68v5Zm152.12-3h-4v59.41h36.44v-4h-32.44V6.63Zm55.6,2.58h19.22v52.25h-19.22v5h43.44v-5h-19.22V9.21h20.46v-5h-44.68v5ZM425.7,0l-26.36,66.01,4.64,1.86,6.64-16.64h30.38l6.27,15.52,4.64-1.87L425.7,0Zm-13.08,46.23l13.1-32.82,13.26,32.82h-26.37Zm-187.48-5.32h25.11c-2.06,12.59-12.6,22.17-24.83,22.17-13.9,0-25.21-11.99-25.21-26.73s11.31-26.72,25.21-26.72c5.82,0,11.5,2.15,15.98,6.06l1.51,1.31,3.28-3.77-1.51-1.31c-5.4-4.7-12.24-7.29-19.27-7.29-16.66,0-30.21,14.23-30.21,31.72s13.55,31.73,30.21,31.73,29.05-12.96,30.14-29.51c.01-.19.01-.37.01-.65v-2.01s-30.42,0-30.42,0v5Z" fill="url(#linear-gradient)"/></svg>